<svg width="24" height="24" viewBox="0 0 24 24" fill="none" xmlns="http://www.w3.org/2000/svg">
<path d="M11.98 9.42105L14.3158 11.7495V11.6316C14.3158 11.0453 14.0829 10.4831 13.6683 10.0685C13.2538 9.65395 12.6915 9.42105 12.1053 9.42105H11.98ZM8.81158 10.0105L9.95368 11.1526C9.91684 11.3074 9.89474 11.4621 9.89474 11.6316C9.89474 12.2178 10.1276 12.7801 10.5422 13.1947C10.9567 13.6092 11.519 13.8421 12.1053 13.8421C12.2674 13.8421 12.4295 13.82 12.5842 13.7832L13.7263 14.9253C13.2326 15.1684 12.6874 15.3158 12.1053 15.3158C11.1281 15.3158 10.1911 14.9276 9.50013 14.2367C8.80921 13.5458 8.42105 12.6087 8.42105 11.6316C8.42105 11.0495 8.56842 10.5042 8.81158 10.0105ZM4.73684 5.93579L6.41684 7.61579L6.74842 7.94737C5.53263 8.90526 4.57474 10.1579 4 11.6316C5.27474 14.8663 8.42105 17.1579 12.1053 17.1579C13.2474 17.1579 14.3379 16.9368 15.3326 16.5389L15.6495 16.8484L17.8011 19L18.7368 18.0642L5.67263 5M12.1053 7.94737C13.0824 7.94737 14.0195 8.33553 14.7104 9.02645C15.4013 9.71737 15.7895 10.6545 15.7895 11.6316C15.7895 12.1032 15.6937 12.56 15.5242 12.9726L17.6832 15.1316C18.7884 14.2105 19.6726 13.0021 20.2105 11.6316C18.9358 8.39684 15.7895 6.10526 12.1053 6.10526C11.0737 6.10526 10.0863 6.28947 9.15789 6.62105L10.7568 8.20526C11.1768 8.04316 11.6263 7.94737 12.1053 7.94737Z" fill="#284B61"/>
</svg>
