<svg width="24" height="24" viewBox="0 0 24 24" fill="none" xmlns="http://www.w3.org/2000/svg">
<path d="M11.8571 15.0357C11.1578 15.0357 10.4743 14.8283 9.89281 14.4398C9.31136 14.0513 8.85818 13.4991 8.59057 12.8531C8.32296 12.207 8.25294 11.4961 8.38937 10.8102C8.52579 10.1244 8.86254 9.49435 9.35702 8.99987C9.85149 8.50539 10.4815 8.16865 11.1674 8.03222C11.8532 7.8958 12.5641 7.96582 13.2102 8.23343C13.8563 8.50104 14.4085 8.95422 14.797 9.53566C15.1855 10.1171 15.3929 10.8007 15.3929 11.5C15.3929 12.4377 15.0203 13.3371 14.3573 14.0001C13.6942 14.6632 12.7949 15.0357 11.8571 15.0357ZM11.8571 6C6.35714 6 4 11.5 4 11.5C4 11.5 6.35714 17 11.8571 17C17.3571 17 19.7143 11.5 19.7143 11.5C19.7143 11.5 17.3571 6 11.8571 6Z" fill="#284B61"/>
<path d="M11.8572 13.4642C12.942 13.4642 13.8215 12.5848 13.8215 11.4999C13.8215 10.4151 12.942 9.53564 11.8572 9.53564C10.7723 9.53564 9.89288 10.4151 9.89288 11.4999C9.89288 12.5848 10.7723 13.4642 11.8572 13.4642Z" fill="#284B61"/>
</svg>
