<svg width="16" height="16" viewBox="0 0 16 16" fill="none" xmlns="http://www.w3.org/2000/svg">
<path d="M 0 4 A 4 4 0 0 1 4 0 L 12 0 A 4 4 0 0 1 16 4 L 16 12 A 4 4 0 0 1 12 16 L 4 16 A 4 4 0 0 1 0 12 Z" fill="#000000" />
<path d="M11.5157 3.2439H4.36792V4.59025H11.5157V3.2439Z" fill="#FFA914"/>
<path d="M7.9418 7.35791H4.36792V8.70427H7.9418V7.35791Z" fill="#F4312A"/>
<path d="M3.89278 5.25793C4.6541 5.25793 5.27128 4.64377 5.27128 3.88617C5.27128 3.12856 4.6541 2.5144 3.89278 2.5144C3.13146 2.5144 2.51428 3.12856 2.51428 3.88617C2.51428 4.64377 3.13146 5.25793 3.89278 5.25793Z" fill="#FFA914"/>
<path d="M3.89278 9.37194C4.6541 9.37194 5.27128 8.75778 5.27128 8.00018C5.27128 7.24258 4.6541 6.62842 3.89278 6.62842C3.13146 6.62842 2.51428 7.24258 2.51428 8.00018C2.51428 8.75778 3.13146 9.37194 3.89278 9.37194Z" fill="#F4312A"/>
<path d="M8.0002 5.25793C8.76153 5.25793 9.3787 4.64377 9.3787 3.88617C9.3787 3.12856 8.76153 2.5144 8.0002 2.5144C7.23888 2.5144 6.6217 3.12856 6.6217 3.88617C6.6217 4.64377 7.23888 5.25793 8.0002 5.25793Z" fill="#FFA914"/>
<path d="M8.0002 9.37194C8.76153 9.37194 9.3787 8.75778 9.3787 8.00018C9.3787 7.24258 8.76153 6.62842 8.0002 6.62842C7.23888 6.62842 6.6217 7.24258 6.6217 8.00018C6.6217 8.75778 7.23888 9.37194 8.0002 9.37194Z" fill="#F4312A"/>
<path d="M12.1071 5.25793C12.8685 5.25793 13.4856 4.64377 13.4856 3.88617C13.4856 3.12856 12.8685 2.5144 12.1071 2.5144C11.3458 2.5144 10.7286 3.12856 10.7286 3.88617C10.7286 4.64377 11.3458 5.25793 12.1071 5.25793Z" fill="#FFA914"/>
<path d="M3.89278 13.4857C4.6541 13.4857 5.27128 12.8715 5.27128 12.1139C5.27128 11.3563 4.6541 10.7422 3.89278 10.7422C3.13146 10.7422 2.51428 11.3563 2.51428 12.1139C2.51428 12.8715 3.13146 13.4857 3.89278 13.4857Z" fill="#0AA5FF"/>
</svg>