<svg width="146" height="36" viewBox="0 0 146 36" fill="none" xmlns="http://www.w3.org/2000/svg">
<path d="M23.6907 7.59607H8.05493V10.5412H23.6907V7.59607Z" fill="#FFA914"/>
<path d="M15.8728 16.5952H8.05493V19.5404H15.8728V16.5952Z" fill="#F4312A"/>
<path d="M7.01547 12.0016C8.68086 12.0016 10.0309 10.6582 10.0309 9.00091C10.0309 7.34365 8.68086 6.00018 7.01547 6.00018C5.35007 6.00018 4 7.34365 4 9.00091C4 10.6582 5.35007 12.0016 7.01547 12.0016Z" fill="#FFA914"/>
<path d="M7.01547 21.0008C8.68086 21.0008 10.0309 19.6574 10.0309 18.0001C10.0309 16.3429 8.68086 14.9994 7.01547 14.9994C5.35007 14.9994 4 16.3429 4 18.0001C4 19.6574 5.35007 21.0008 7.01547 21.0008Z" fill="#F4312A"/>
<path d="M16.0005 12.0016C17.6658 12.0016 19.0159 10.6582 19.0159 9.00091C19.0159 7.34365 17.6658 6.00018 16.0005 6.00018C14.3351 6.00018 12.985 7.34365 12.985 9.00091C12.985 10.6582 14.3351 12.0016 16.0005 12.0016Z" fill="#FFA914"/>
<path d="M16.0005 21.0008C17.6658 21.0008 19.0159 19.6574 19.0159 18.0001C19.0159 16.3429 17.6658 14.9994 16.0005 14.9994C14.3351 14.9994 12.985 16.3429 12.985 18.0001C12.985 19.6574 14.3351 21.0008 16.0005 21.0008Z" fill="#F4312A"/>
<path d="M24.9843 12.0016C26.6497 12.0016 27.9998 10.6582 27.9998 9.00091C27.9998 7.34365 26.6497 6.00018 24.9843 6.00018C23.3189 6.00018 21.9689 7.34365 21.9689 9.00091C21.9689 10.6582 23.3189 12.0016 24.9843 12.0016Z" fill="#FFA914"/>
<path d="M7.01547 29.9999C8.68086 29.9999 10.0309 28.6564 10.0309 26.9991C10.0309 25.3419 8.68086 23.9984 7.01547 23.9984C5.35007 23.9984 4 25.3419 4 26.9991C4 28.6564 5.35007 29.9999 7.01547 29.9999Z" fill="#0AA5FF"/>
<path d="M47.074 17.626C45.91 17.626 44.848 17.356 43.888 16.816C42.928 16.264 42.166 15.502 41.602 14.53C41.05 13.546 40.774 12.442 40.774 11.218C40.774 9.994 41.05 8.896 41.602 7.924C42.166 6.94 42.928 6.178 43.888 5.638C44.848 5.086 45.91 4.81 47.074 4.81C48.25 4.81 49.318 5.086 50.278 5.638C51.238 6.178 51.994 6.934 52.546 7.906C53.098 8.878 53.374 9.982 53.374 11.218C53.374 12.454 53.098 13.558 52.546 14.53C51.994 15.502 51.238 16.264 50.278 16.816C49.318 17.356 48.25 17.626 47.074 17.626ZM47.074 16.204C47.95 16.204 48.736 16 49.432 15.592C50.14 15.184 50.692 14.602 51.088 13.846C51.496 13.09 51.7 12.214 51.7 11.218C51.7 10.21 51.496 9.334 51.088 8.59C50.692 7.834 50.146 7.252 49.45 6.844C48.754 6.436 47.962 6.232 47.074 6.232C46.186 6.232 45.394 6.436 44.698 6.844C44.002 7.252 43.45 7.834 43.042 8.59C42.646 9.334 42.448 10.21 42.448 11.218C42.448 12.214 42.646 13.09 43.042 13.846C43.45 14.602 44.002 15.184 44.698 15.592C45.406 16 46.198 16.204 47.074 16.204ZM57.1744 9.238C57.4624 8.674 57.8704 8.236 58.3984 7.924C58.9384 7.612 59.5924 7.456 60.3604 7.456V9.148H59.9284C58.0924 9.148 57.1744 10.144 57.1744 12.136V17.5H55.5364V7.636H57.1744V9.238ZM61.6392 12.532C61.6392 11.524 61.8432 10.642 62.2512 9.886C62.6592 9.118 63.2172 8.524 63.9252 8.104C64.6452 7.684 65.4492 7.474 66.3372 7.474C67.1052 7.474 67.8192 7.654 68.4792 8.014C69.1392 8.362 69.6432 8.824 69.9912 9.4V4.18H71.6472V17.5H69.9912V15.646C69.6672 16.234 69.1872 16.72 68.5512 17.104C67.9152 17.476 67.1712 17.662 66.3192 17.662C65.4432 17.662 64.6452 17.446 63.9252 17.014C63.2172 16.582 62.6592 15.976 62.2512 15.196C61.8432 14.416 61.6392 13.528 61.6392 12.532ZM69.9912 12.55C69.9912 11.806 69.8412 11.158 69.5412 10.606C69.2412 10.054 68.8332 9.634 68.3172 9.346C67.8132 9.046 67.2552 8.896 66.6432 8.896C66.0312 8.896 65.4732 9.04 64.9692 9.328C64.4652 9.616 64.0632 10.036 63.7632 10.588C63.4632 11.14 63.3132 11.788 63.3132 12.532C63.3132 13.288 63.4632 13.948 63.7632 14.512C64.0632 15.064 64.4652 15.49 64.9692 15.79C65.4732 16.078 66.0312 16.222 66.6432 16.222C67.2552 16.222 67.8132 16.078 68.3172 15.79C68.8332 15.49 69.2412 15.064 69.5412 14.512C69.8412 13.948 69.9912 13.294 69.9912 12.55ZM83.4153 12.19C83.4153 12.502 83.3973 12.832 83.3613 13.18H75.4773C75.5373 14.152 75.8673 14.914 76.4673 15.466C77.0793 16.006 77.8173 16.276 78.6813 16.276C79.3893 16.276 79.9773 16.114 80.4453 15.79C80.9253 15.454 81.2613 15.01 81.4533 14.458H83.2173C82.9533 15.406 82.4253 16.18 81.6333 16.78C80.8413 17.368 79.8573 17.662 78.6813 17.662C77.7453 17.662 76.9053 17.452 76.1613 17.032C75.4293 16.612 74.8533 16.018 74.4333 15.25C74.0133 14.47 73.8033 13.57 73.8033 12.55C73.8033 11.53 74.0073 10.636 74.4153 9.868C74.8233 9.1 75.3933 8.512 76.1253 8.104C76.8693 7.684 77.7213 7.474 78.6813 7.474C79.6173 7.474 80.4453 7.678 81.1653 8.086C81.8853 8.494 82.4373 9.058 82.8213 9.778C83.2173 10.486 83.4153 11.29 83.4153 12.19ZM81.7233 11.848C81.7233 11.224 81.5853 10.69 81.3093 10.246C81.0333 9.79 80.6553 9.448 80.1753 9.22C79.7073 8.98 79.1853 8.86 78.6093 8.86C77.7813 8.86 77.0733 9.124 76.4853 9.652C75.9093 10.18 75.5793 10.912 75.4953 11.848H81.7233ZM87.2154 9.238C87.5034 8.674 87.9114 8.236 88.4394 7.924C88.9794 7.612 89.6334 7.456 90.4014 7.456V9.148H89.9694C88.1334 9.148 87.2154 10.144 87.2154 12.136V17.5H85.5774V7.636H87.2154V9.238ZM103.697 17.5L100.709 12.37H98.7291V17.5H97.0911V4.954H101.141C102.089 4.954 102.887 5.116 103.535 5.44C104.195 5.764 104.687 6.202 105.011 6.754C105.335 7.306 105.497 7.936 105.497 8.644C105.497 9.508 105.245 10.27 104.741 10.93C104.249 11.59 103.505 12.028 102.509 12.244L105.659 17.5H103.697ZM98.7291 11.056H101.141C102.029 11.056 102.695 10.84 103.139 10.408C103.583 9.964 103.805 9.376 103.805 8.644C103.805 7.9 103.583 7.324 103.139 6.916C102.707 6.508 102.041 6.304 101.141 6.304H98.7291V11.056ZM108.888 6.034C108.576 6.034 108.312 5.926 108.096 5.71C107.88 5.494 107.772 5.23 107.772 4.918C107.772 4.606 107.88 4.342 108.096 4.126C108.312 3.91 108.576 3.802 108.888 3.802C109.188 3.802 109.44 3.91 109.644 4.126C109.86 4.342 109.968 4.606 109.968 4.918C109.968 5.23 109.86 5.494 109.644 5.71C109.44 5.926 109.188 6.034 108.888 6.034ZM109.68 7.636V17.5H108.042V7.636H109.68ZM116.54 7.474C117.392 7.474 118.136 7.66 118.772 8.032C119.42 8.404 119.9 8.872 120.212 9.436V7.636H121.868V17.716C121.868 18.616 121.676 19.414 121.292 20.11C120.908 20.818 120.356 21.37 119.636 21.766C118.928 22.162 118.1 22.36 117.152 22.36C115.856 22.36 114.776 22.054 113.912 21.442C113.048 20.83 112.538 19.996 112.382 18.94H114.002C114.182 19.54 114.554 20.02 115.118 20.38C115.682 20.752 116.36 20.938 117.152 20.938C118.052 20.938 118.784 20.656 119.348 20.092C119.924 19.528 120.212 18.736 120.212 17.716V15.646C119.888 16.222 119.408 16.702 118.772 17.086C118.136 17.47 117.392 17.662 116.54 17.662C115.664 17.662 114.866 17.446 114.146 17.014C113.438 16.582 112.88 15.976 112.472 15.196C112.064 14.416 111.86 13.528 111.86 12.532C111.86 11.524 112.064 10.642 112.472 9.886C112.88 9.118 113.438 8.524 114.146 8.104C114.866 7.684 115.664 7.474 116.54 7.474ZM120.212 12.55C120.212 11.806 120.062 11.158 119.762 10.606C119.462 10.054 119.054 9.634 118.538 9.346C118.034 9.046 117.476 8.896 116.864 8.896C116.252 8.896 115.694 9.04 115.19 9.328C114.686 9.616 114.284 10.036 113.984 10.588C113.684 11.14 113.534 11.788 113.534 12.532C113.534 13.288 113.684 13.948 113.984 14.512C114.284 15.064 114.686 15.49 115.19 15.79C115.694 16.078 116.252 16.222 116.864 16.222C117.476 16.222 118.034 16.078 118.538 15.79C119.054 15.49 119.462 15.064 119.762 14.512C120.062 13.948 120.212 13.294 120.212 12.55ZM129.532 7.456C130.276 7.456 130.948 7.618 131.548 7.942C132.148 8.254 132.616 8.728 132.952 9.364C133.3 10 133.474 10.774 133.474 11.686V17.5H131.854V11.92C131.854 10.936 131.608 10.186 131.116 9.67C130.624 9.142 129.952 8.878 129.1 8.878C128.236 8.878 127.546 9.148 127.03 9.688C126.526 10.228 126.274 11.014 126.274 12.046V17.5H124.636V4.18H126.274V9.04C126.598 8.536 127.042 8.146 127.606 7.87C128.182 7.594 128.824 7.456 129.532 7.456ZM138.148 8.986V14.8C138.148 15.28 138.25 15.622 138.454 15.826C138.658 16.018 139.012 16.114 139.516 16.114H140.722V17.5H139.246C138.334 17.5 137.65 17.29 137.194 16.87C136.738 16.45 136.51 15.76 136.51 14.8V8.986H135.232V7.636H136.51V5.152H138.148V7.636H140.722V8.986H138.148Z" fill="#FAFAFA"/>
<path d="M41.68 27.04C41.8667 26.7133 42.14 26.4467 42.5 26.24C42.86 26.0333 43.27 25.93 43.73 25.93C44.2233 25.93 44.6667 26.0467 45.06 26.28C45.4533 26.5133 45.7633 26.8433 45.99 27.27C46.2167 27.69 46.33 28.18 46.33 28.74C46.33 29.2933 46.2167 29.7867 45.99 30.22C45.7633 30.6533 45.45 30.99 45.05 31.23C44.6567 31.47 44.2167 31.59 43.73 31.59C43.2567 31.59 42.84 31.4867 42.48 31.28C42.1267 31.0733 41.86 30.81 41.68 30.49V31.5H40.77V24.1H41.68V27.04ZM45.4 28.74C45.4 28.3267 45.3167 27.9667 45.15 27.66C44.9833 27.3533 44.7567 27.12 44.47 26.96C44.19 26.8 43.88 26.72 43.54 26.72C43.2067 26.72 42.8967 26.8033 42.61 26.97C42.33 27.13 42.1033 27.3667 41.93 27.68C41.7633 27.9867 41.68 28.3433 41.68 28.75C41.68 29.1633 41.7633 29.5267 41.93 29.84C42.1033 30.1467 42.33 30.3833 42.61 30.55C42.8967 30.71 43.2067 30.79 43.54 30.79C43.88 30.79 44.19 30.71 44.47 30.55C44.7567 30.3833 44.9833 30.1467 45.15 29.84C45.3167 29.5267 45.4 29.16 45.4 28.74ZM52.2478 26.02L48.9478 34.08H48.0078L49.0878 31.44L46.8778 26.02H47.8878L49.6078 30.46L51.3078 26.02H52.2478ZM59.9486 29.95H56.9086L56.3486 31.5H55.3886L57.9086 24.57H58.9586L61.4686 31.5H60.5086L59.9486 29.95ZM59.6886 29.21L58.4286 25.69L57.1686 29.21H59.6886ZM63.4769 24.1V31.5H62.5669V24.1H63.4769ZM67.2878 25.93C67.7611 25.93 68.1745 26.0333 68.5278 26.24C68.8878 26.4467 69.1545 26.7067 69.3278 27.02V26.02H70.2478V31.62C70.2478 32.12 70.1411 32.5633 69.9278 32.95C69.7145 33.3433 69.4078 33.65 69.0078 33.87C68.6145 34.09 68.1545 34.2 67.6278 34.2C66.9078 34.2 66.3078 34.03 65.8278 33.69C65.3478 33.35 65.0645 32.8867 64.9778 32.3H65.8778C65.9778 32.6333 66.1845 32.9 66.4978 33.1C66.8111 33.3067 67.1878 33.41 67.6278 33.41C68.1278 33.41 68.5345 33.2533 68.8478 32.94C69.1678 32.6267 69.3278 32.1867 69.3278 31.62V30.47C69.1478 30.79 68.8811 31.0567 68.5278 31.27C68.1745 31.4833 67.7611 31.59 67.2878 31.59C66.8011 31.59 66.3578 31.47 65.9578 31.23C65.5645 30.99 65.2545 30.6533 65.0278 30.22C64.8011 29.7867 64.6878 29.2933 64.6878 28.74C64.6878 28.18 64.8011 27.69 65.0278 27.27C65.2545 26.8433 65.5645 26.5133 65.9578 26.28C66.3578 26.0467 66.8011 25.93 67.2878 25.93ZM69.3278 28.75C69.3278 28.3367 69.2445 27.9767 69.0778 27.67C68.9111 27.3633 68.6845 27.13 68.3978 26.97C68.1178 26.8033 67.8078 26.72 67.4678 26.72C67.1278 26.72 66.8178 26.8 66.5378 26.96C66.2578 27.12 66.0345 27.3533 65.8678 27.66C65.7011 27.9667 65.6178 28.3267 65.6178 28.74C65.6178 29.16 65.7011 29.5267 65.8678 29.84C66.0345 30.1467 66.2578 30.3833 66.5378 30.55C66.8178 30.71 67.1278 30.79 67.4678 30.79C67.8078 30.79 68.1178 30.71 68.3978 30.55C68.6845 30.3833 68.9111 30.1467 69.0778 29.84C69.2445 29.5267 69.3278 29.1633 69.3278 28.75ZM74.1756 31.59C73.6623 31.59 73.1956 31.4733 72.7756 31.24C72.3623 31.0067 72.0356 30.6767 71.7956 30.25C71.5623 29.8167 71.4456 29.3167 71.4456 28.75C71.4456 28.19 71.5656 27.6967 71.8056 27.27C72.0523 26.8367 72.3856 26.5067 72.8056 26.28C73.2256 26.0467 73.6956 25.93 74.2156 25.93C74.7356 25.93 75.2056 26.0467 75.6256 26.28C76.0456 26.5067 76.3756 26.8333 76.6156 27.26C76.8623 27.6867 76.9856 28.1833 76.9856 28.75C76.9856 29.3167 76.859 29.8167 76.6056 30.25C76.359 30.6767 76.0223 31.0067 75.5956 31.24C75.169 31.4733 74.6956 31.59 74.1756 31.59ZM74.1756 30.79C74.5023 30.79 74.809 30.7133 75.0956 30.56C75.3823 30.4067 75.6123 30.1767 75.7856 29.87C75.9656 29.5633 76.0556 29.19 76.0556 28.75C76.0556 28.31 75.969 27.9367 75.7956 27.63C75.6223 27.3233 75.3956 27.0967 75.1156 26.95C74.8356 26.7967 74.5323 26.72 74.2056 26.72C73.8723 26.72 73.5656 26.7967 73.2856 26.95C73.0123 27.0967 72.7923 27.3233 72.6256 27.63C72.459 27.9367 72.3756 28.31 72.3756 28.75C72.3756 29.1967 72.4556 29.5733 72.6156 29.88C72.7823 30.1867 73.0023 30.4167 73.2756 30.57C73.549 30.7167 73.849 30.79 74.1756 30.79ZM80.8521 25.92C81.5188 25.92 82.0588 26.1233 82.4721 26.53C82.8854 26.93 83.0921 27.51 83.0921 28.27V31.5H82.1921V28.4C82.1921 27.8533 82.0554 27.4367 81.7821 27.15C81.5088 26.8567 81.1354 26.71 80.6621 26.71C80.1821 26.71 79.7988 26.86 79.5121 27.16C79.2321 27.46 79.0921 27.8967 79.0921 28.47V31.5H78.1821V26.02H79.0921V26.8C79.2721 26.52 79.5154 26.3033 79.8221 26.15C80.1354 25.9967 80.4788 25.92 80.8521 25.92ZM86.9686 31.59C86.4553 31.59 85.9886 31.4733 85.5686 31.24C85.1553 31.0067 84.8286 30.6767 84.5886 30.25C84.3553 29.8167 84.2386 29.3167 84.2386 28.75C84.2386 28.19 84.3586 27.6967 84.5986 27.27C84.8453 26.8367 85.1786 26.5067 85.5986 26.28C86.0186 26.0467 86.4886 25.93 87.0086 25.93C87.5286 25.93 87.9986 26.0467 88.4186 26.28C88.8386 26.5067 89.1686 26.8333 89.4086 27.26C89.6553 27.6867 89.7786 28.1833 89.7786 28.75C89.7786 29.3167 89.6519 29.8167 89.3986 30.25C89.1519 30.6767 88.8153 31.0067 88.3886 31.24C87.9619 31.4733 87.4886 31.59 86.9686 31.59ZM86.9686 30.79C87.2953 30.79 87.6019 30.7133 87.8886 30.56C88.1753 30.4067 88.4053 30.1767 88.5786 29.87C88.7586 29.5633 88.8486 29.19 88.8486 28.75C88.8486 28.31 88.7619 27.9367 88.5886 27.63C88.4153 27.3233 88.1886 27.0967 87.9086 26.95C87.6286 26.7967 87.3253 26.72 86.9986 26.72C86.6653 26.72 86.3586 26.7967 86.0786 26.95C85.8053 27.0967 85.5853 27.3233 85.4186 27.63C85.2519 27.9367 85.1686 28.31 85.1686 28.75C85.1686 29.1967 85.2486 29.5733 85.4086 29.88C85.5753 30.1867 85.7953 30.4167 86.0686 30.57C86.3419 30.7167 86.6419 30.79 86.9686 30.79ZM97.5651 25.92C97.9917 25.92 98.3717 26.01 98.7051 26.19C99.0384 26.3633 99.3017 26.6267 99.4951 26.98C99.6884 27.3333 99.7851 27.7633 99.7851 28.27V31.5H98.8851V28.4C98.8851 27.8533 98.7484 27.4367 98.4751 27.15C98.2084 26.8567 97.8451 26.71 97.3851 26.71C96.9117 26.71 96.5351 26.8633 96.2551 27.17C95.9751 27.47 95.8351 27.9067 95.8351 28.48V31.5H94.9351V28.4C94.9351 27.8533 94.7984 27.4367 94.5251 27.15C94.2584 26.8567 93.8951 26.71 93.4351 26.71C92.9617 26.71 92.5851 26.8633 92.3051 27.17C92.0251 27.47 91.8851 27.9067 91.8851 28.48V31.5H90.9751V26.02H91.8851V26.81C92.0651 26.5233 92.3051 26.3033 92.6051 26.15C92.9117 25.9967 93.2484 25.92 93.6151 25.92C94.0751 25.92 94.4817 26.0233 94.8351 26.23C95.1884 26.4367 95.4517 26.74 95.6251 27.14C95.7784 26.7533 96.0317 26.4533 96.3851 26.24C96.7384 26.0267 97.1317 25.92 97.5651 25.92ZM105.998 26.02L102.698 34.08H101.758L102.838 31.44L100.628 26.02H101.638L103.358 30.46L105.058 26.02H105.998Z" fill="#57809A"/>
</svg>
