<svg width="174" height="51" viewBox="0 0 174 51" fill="none" xmlns="http://www.w3.org/2000/svg">
<path d="M66.86 20.9344C65.5533 20.9344 64.3533 20.6278 63.26 20.0144C62.1667 19.4011 61.3 18.5544 60.66 17.4744C60.02 16.3811 59.7 15.1478 59.7 13.7744C59.7 12.4144 60.02 11.1944 60.66 10.1144C61.3 9.02111 62.1667 8.16778 63.26 7.55444C64.3533 6.94111 65.5533 6.63444 66.86 6.63444C68.18 6.63444 69.38 6.94111 70.46 7.55444C71.5533 8.16778 72.4133 9.02111 73.04 10.1144C73.68 11.1944 74 12.4144 74 13.7744C74 15.1478 73.68 16.3811 73.04 17.4744C72.4133 18.5544 71.5533 19.4011 70.46 20.0144C69.3667 20.6278 68.1667 20.9344 66.86 20.9344ZM66.86 18.4344C67.7 18.4344 68.44 18.2478 69.08 17.8744C69.72 17.4878 70.22 16.9411 70.58 16.2344C70.94 15.5278 71.12 14.7078 71.12 13.7744C71.12 12.8411 70.94 12.0278 70.58 11.3344C70.22 10.6278 69.72 10.0878 69.08 9.71444C68.44 9.34111 67.7 9.15444 66.86 9.15444C66.02 9.15444 65.2733 9.34111 64.62 9.71444C63.98 10.0878 63.48 10.6278 63.12 11.3344C62.76 12.0278 62.58 12.8411 62.58 13.7744C62.58 14.7078 62.76 15.5278 63.12 16.2344C63.48 16.9411 63.98 17.4878 64.62 17.8744C65.2733 18.2478 66.02 18.4344 66.86 18.4344ZM78.8831 11.4344C79.2431 10.8478 79.7098 10.3878 80.2831 10.0544C80.8698 9.72111 81.5365 9.55444 82.2831 9.55444V12.4944H81.5431C80.6631 12.4944 79.9965 12.7011 79.5431 13.1144C79.1031 13.5278 78.8831 14.2478 78.8831 15.2744V20.7944H76.0831V9.71444H78.8831V11.4344ZM83.4491 15.2144C83.4491 14.0944 83.6691 13.1011 84.1091 12.2344C84.5624 11.3678 85.1757 10.7011 85.9491 10.2344C86.7224 9.76778 87.5824 9.53444 88.5291 9.53444C89.2491 9.53444 89.9357 9.69444 90.5891 10.0144C91.2424 10.3211 91.7624 10.7344 92.1491 11.2544V5.99444H94.9891V20.7944H92.1491V19.1544C91.8024 19.7011 91.3157 20.1411 90.6891 20.4744C90.0624 20.8078 89.3357 20.9744 88.5091 20.9744C87.5757 20.9744 86.7224 20.7344 85.9491 20.2544C85.1757 19.7744 84.5624 19.1011 84.1091 18.2344C83.6691 17.3544 83.4491 16.3478 83.4491 15.2144ZM92.1691 15.2544C92.1691 14.5744 92.0357 13.9944 91.7691 13.5144C91.5024 13.0211 91.1424 12.6478 90.6891 12.3944C90.2357 12.1278 89.7491 11.9944 89.2291 11.9944C88.7091 11.9944 88.2291 12.1211 87.7891 12.3744C87.3491 12.6278 86.9891 13.0011 86.7091 13.4944C86.4424 13.9744 86.3091 14.5478 86.3091 15.2144C86.3091 15.8811 86.4424 16.4678 86.7091 16.9744C86.9891 17.4678 87.3491 17.8478 87.7891 18.1144C88.2424 18.3811 88.7224 18.5144 89.2291 18.5144C89.7491 18.5144 90.2357 18.3878 90.6891 18.1344C91.1424 17.8678 91.5024 17.4944 91.7691 17.0144C92.0357 16.5211 92.1691 15.9344 92.1691 15.2544ZM108.024 15.0144C108.024 15.4144 107.997 15.7744 107.944 16.0944H99.8438C99.9104 16.8944 100.19 17.5211 100.684 17.9744C101.177 18.4278 101.784 18.6544 102.504 18.6544C103.544 18.6544 104.284 18.2078 104.724 17.3144H107.744C107.424 18.3811 106.81 19.2611 105.904 19.9544C104.997 20.6344 103.884 20.9744 102.564 20.9744C101.497 20.9744 100.537 20.7411 99.6838 20.2744C98.8438 19.7944 98.1838 19.1211 97.7038 18.2544C97.2371 17.3878 97.0037 16.3878 97.0037 15.2544C97.0037 14.1078 97.2371 13.1011 97.7038 12.2344C98.1704 11.3678 98.8238 10.7011 99.6638 10.2344C100.504 9.76778 101.47 9.53444 102.564 9.53444C103.617 9.53444 104.557 9.76111 105.384 10.2144C106.224 10.6678 106.87 11.3144 107.324 12.1544C107.79 12.9811 108.024 13.9344 108.024 15.0144ZM105.124 14.2144C105.11 13.4944 104.85 12.9211 104.344 12.4944C103.837 12.0544 103.217 11.8344 102.484 11.8344C101.79 11.8344 101.204 12.0478 100.724 12.4744C100.257 12.8878 99.9704 13.4678 99.8638 14.2144H105.124ZM112.868 11.4344C113.228 10.8478 113.694 10.3878 114.268 10.0544C114.854 9.72111 115.521 9.55444 116.268 9.55444V12.4944H115.528C114.648 12.4944 113.981 12.7011 113.528 13.1144C113.088 13.5278 112.868 14.2478 112.868 15.2744V20.7944H110.068V9.71444H112.868V11.4344ZM130.119 20.7944L127.039 15.3544H125.719V20.7944H122.919V6.83444H128.159C129.239 6.83444 130.159 7.02778 130.919 7.41444C131.679 7.78778 132.246 8.30111 132.619 8.95444C133.006 9.59444 133.199 10.3144 133.199 11.1144C133.199 12.0344 132.932 12.8678 132.399 13.6144C131.866 14.3478 131.072 14.8544 130.019 15.1344L133.359 20.7944H130.119ZM125.719 13.2544H128.059C128.819 13.2544 129.386 13.0744 129.759 12.7144C130.132 12.3411 130.319 11.8278 130.319 11.1744C130.319 10.5344 130.132 10.0411 129.759 9.69444C129.386 9.33444 128.819 9.15444 128.059 9.15444H125.719V13.2544ZM137.152 8.39444C136.658 8.39444 136.245 8.24111 135.912 7.93444C135.592 7.61444 135.432 7.22111 135.432 6.75444C135.432 6.28778 135.592 5.90111 135.912 5.59444C136.245 5.27444 136.658 5.11444 137.152 5.11444C137.645 5.11444 138.052 5.27444 138.372 5.59444C138.705 5.90111 138.872 6.28778 138.872 6.75444C138.872 7.22111 138.705 7.61444 138.372 7.93444C138.052 8.24111 137.645 8.39444 137.152 8.39444ZM138.532 9.71444V20.7944H135.732V9.71444H138.532ZM145.638 9.53444C146.465 9.53444 147.191 9.70111 147.818 10.0344C148.445 10.3544 148.938 10.7744 149.298 11.2944V9.71444H152.118V20.8744C152.118 21.9011 151.911 22.8144 151.498 23.6144C151.085 24.4278 150.465 25.0678 149.638 25.5344C148.811 26.0144 147.811 26.2544 146.638 26.2544C145.065 26.2544 143.771 25.8878 142.758 25.1544C141.758 24.4211 141.191 23.4211 141.058 22.1544H143.838C143.985 22.6611 144.298 23.0611 144.778 23.3544C145.271 23.6611 145.865 23.8144 146.558 23.8144C147.371 23.8144 148.031 23.5678 148.538 23.0744C149.045 22.5944 149.298 21.8611 149.298 20.8744V19.1544C148.938 19.6744 148.438 20.1078 147.798 20.4544C147.171 20.8011 146.451 20.9744 145.638 20.9744C144.705 20.9744 143.851 20.7344 143.078 20.2544C142.305 19.7744 141.691 19.1011 141.238 18.2344C140.798 17.3544 140.578 16.3478 140.578 15.2144C140.578 14.0944 140.798 13.1011 141.238 12.2344C141.691 11.3678 142.298 10.7011 143.058 10.2344C143.831 9.76778 144.691 9.53444 145.638 9.53444ZM149.298 15.2544C149.298 14.5744 149.165 13.9944 148.898 13.5144C148.631 13.0211 148.271 12.6478 147.818 12.3944C147.365 12.1278 146.878 11.9944 146.358 11.9944C145.838 11.9944 145.358 12.1211 144.918 12.3744C144.478 12.6278 144.118 13.0011 143.838 13.4944C143.571 13.9744 143.438 14.5478 143.438 15.2144C143.438 15.8811 143.571 16.4678 143.838 16.9744C144.118 17.4678 144.478 17.8478 144.918 18.1144C145.371 18.3811 145.851 18.5144 146.358 18.5144C146.878 18.5144 147.365 18.3878 147.818 18.1344C148.271 17.8678 148.631 17.4944 148.898 17.0144C149.165 16.5211 149.298 15.9344 149.298 15.2544ZM161.093 9.55444C161.933 9.55444 162.679 9.74111 163.333 10.1144C163.986 10.4744 164.493 11.0144 164.853 11.7344C165.226 12.4411 165.413 13.2944 165.413 14.2944V20.7944H162.613V14.6744C162.613 13.7944 162.393 13.1211 161.953 12.6544C161.513 12.1744 160.913 11.9344 160.153 11.9344C159.379 11.9344 158.766 12.1744 158.313 12.6544C157.873 13.1211 157.653 13.7944 157.653 14.6744V20.7944H154.853V5.99444H157.653V11.0944C158.013 10.6144 158.493 10.2411 159.093 9.97444C159.693 9.69444 160.359 9.55444 161.093 9.55444ZM171.335 12.0144V17.3744C171.335 17.7478 171.422 18.0211 171.595 18.1944C171.782 18.3544 172.089 18.4344 172.515 18.4344H173.815V20.7944H172.055C169.695 20.7944 168.515 19.6478 168.515 17.3544V12.0144H167.195V9.71444H168.515V6.97444H171.335V9.71444H173.815V12.0144H171.335Z" fill="white"/>
<path d="M37.9816 0H11.0184C4.93308 0 0 5.10209 0 11.3958V39.2829C0 45.5766 4.93308 50.6787 11.0184 50.6787H37.9816C44.0669 50.6787 49 45.5766 49 39.2829V11.3958C49 5.10209 44.0669 0 37.9816 0Z" fill="#F7CC45" fill-opacity="0.2"/>
<path fill-rule="evenodd" clip-rule="evenodd" d="M15.976 19.919C17.0586 19.919 18.0058 19.2802 18.5247 18.3258H22.2741C22.7929 19.2802 23.7402 19.919 24.8227 19.919C25.9053 19.919 26.8526 19.2802 27.3714 18.3258H31.1209C31.6398 19.2802 32.587 19.919 33.6696 19.919C35.3095 19.919 36.6389 18.4532 36.6389 16.645C36.6389 14.8369 35.3095 13.3711 33.6696 13.3711C32.5319 13.3711 31.5436 14.0766 31.0451 15.1125H27.4473C26.9487 14.0766 25.9605 13.3711 24.8227 13.3711C23.685 13.3711 22.6968 14.0766 22.1982 15.1125H18.6005C18.102 14.0766 17.1137 13.3711 15.976 13.3711C14.3361 13.3711 13.0067 14.8369 13.0067 16.645C13.0067 18.4532 14.3361 19.919 15.976 19.919ZM18.5247 28.1443C18.0058 29.0986 17.0586 29.7374 15.976 29.7374C14.3361 29.7374 13.0067 28.2716 13.0067 26.4635C13.0067 24.6553 14.3361 23.1896 15.976 23.1896C17.1137 23.1896 18.102 23.8951 18.6005 24.9309H22.1982C22.6968 23.8951 23.685 23.1896 24.8227 23.1896C26.4626 23.1896 27.792 24.6553 27.792 26.4635C27.792 28.2716 26.4626 29.7374 24.8227 29.7374C23.7402 29.7374 22.7929 29.0986 22.2741 28.1443H18.5247ZM18.9453 36.282C18.9453 38.0901 17.6159 39.5559 15.976 39.5559C14.3361 39.5559 13.0067 38.0901 13.0067 36.282C13.0067 34.4738 14.3361 33.008 15.976 33.008C17.6159 33.008 18.9453 34.4738 18.9453 36.282Z" fill="#F7CC46"/>
<path d="M61.268 38.1664C61.5 37.8464 61.816 37.5864 62.216 37.3864C62.624 37.1784 63.076 37.0744 63.572 37.0744C64.156 37.0744 64.684 37.2144 65.156 37.4944C65.628 37.7744 66 38.1744 66.272 38.6944C66.544 39.2064 66.68 39.7944 66.68 40.4584C66.68 41.1224 66.544 41.7184 66.272 42.2464C66 42.7664 65.624 43.1744 65.144 43.4704C64.672 43.7584 64.148 43.9024 63.572 43.9024C63.06 43.9024 62.604 43.8024 62.204 43.6024C61.812 43.4024 61.5 43.1464 61.268 42.8344V43.7944H59.9V34.9144H61.268V38.1664ZM65.288 40.4584C65.288 40.0024 65.192 39.6104 65 39.2824C64.816 38.9464 64.568 38.6944 64.256 38.5264C63.952 38.3504 63.624 38.2624 63.272 38.2624C62.928 38.2624 62.6 38.3504 62.288 38.5264C61.984 38.7024 61.736 38.9584 61.544 39.2944C61.36 39.6304 61.268 40.0264 61.268 40.4824C61.268 40.9384 61.36 41.3384 61.544 41.6824C61.736 42.0184 61.984 42.2744 62.288 42.4504C62.6 42.6264 62.928 42.7144 63.272 42.7144C63.624 42.7144 63.952 42.6264 64.256 42.4504C64.568 42.2664 64.816 42.0024 65 41.6584C65.192 41.3144 65.288 40.9144 65.288 40.4584ZM73.9848 37.1824L69.9288 46.9024H68.5128L69.8568 43.6864L67.2528 37.1824H68.7768L70.6368 42.2224L72.5688 37.1824H73.9848ZM83.1624 42.0904H79.6704L79.0704 43.7944H77.6424L80.6304 35.4424H82.2144L85.2024 43.7944H83.7624L83.1624 42.0904ZM82.7784 40.9744L81.4224 37.0984L80.0544 40.9744H82.7784ZM87.8696 34.9144V43.7944H86.5016V34.9144H87.8696ZM92.3296 37.0744C92.8416 37.0744 93.2936 37.1784 93.6856 37.3864C94.0856 37.5864 94.3976 37.8384 94.6216 38.1424V37.1824H96.0016V43.9024C96.0016 44.5104 95.8736 45.0504 95.6176 45.5224C95.3616 46.0024 94.9896 46.3784 94.5016 46.6504C94.0216 46.9224 93.4456 47.0584 92.7736 47.0584C91.8776 47.0584 91.1336 46.8464 90.5416 46.4224C89.9496 46.0064 89.6136 45.4384 89.5336 44.7184H90.8896C90.9936 45.0624 91.2136 45.3384 91.5496 45.5464C91.8936 45.7624 92.3016 45.8704 92.7736 45.8704C93.3256 45.8704 93.7696 45.7024 94.1056 45.3664C94.4496 45.0304 94.6216 44.5424 94.6216 43.9024V42.7984C94.3896 43.1104 94.0736 43.3744 93.6736 43.5904C93.2816 43.7984 92.8336 43.9024 92.3296 43.9024C91.7536 43.9024 91.2256 43.7584 90.7456 43.4704C90.2736 43.1744 89.8976 42.7664 89.6176 42.2464C89.3456 41.7184 89.2096 41.1224 89.2096 40.4584C89.2096 39.7944 89.3456 39.2064 89.6176 38.6944C89.8976 38.1824 90.2736 37.7864 90.7456 37.5064C91.2256 37.2184 91.7536 37.0744 92.3296 37.0744ZM94.6216 40.4824C94.6216 40.0264 94.5256 39.6304 94.3336 39.2944C94.1496 38.9584 93.9056 38.7024 93.6016 38.5264C93.2976 38.3504 92.9696 38.2624 92.6176 38.2624C92.2656 38.2624 91.9376 38.3504 91.6336 38.5264C91.3296 38.6944 91.0816 38.9464 90.8896 39.2824C90.7056 39.6104 90.6136 40.0024 90.6136 40.4584C90.6136 40.9144 90.7056 41.3144 90.8896 41.6584C91.0816 42.0024 91.3296 42.2664 91.6336 42.4504C91.9456 42.6264 92.2736 42.7144 92.6176 42.7144C92.9696 42.7144 93.2976 42.6264 93.6016 42.4504C93.9056 42.2744 94.1496 42.0184 94.3336 41.6824C94.5256 41.3384 94.6216 40.9384 94.6216 40.4824ZM100.666 43.9024C100.042 43.9024 99.4784 43.7624 98.9744 43.4824C98.4704 43.1944 98.0744 42.7944 97.7864 42.2824C97.4984 41.7624 97.3544 41.1624 97.3544 40.4824C97.3544 39.8104 97.5024 39.2144 97.7984 38.6944C98.0944 38.1744 98.4984 37.7744 99.0104 37.4944C99.5224 37.2144 100.094 37.0744 100.726 37.0744C101.358 37.0744 101.93 37.2144 102.442 37.4944C102.954 37.7744 103.358 38.1744 103.654 38.6944C103.95 39.2144 104.098 39.8104 104.098 40.4824C104.098 41.1544 103.946 41.7504 103.642 42.2704C103.338 42.7904 102.922 43.1944 102.394 43.4824C101.874 43.7624 101.298 43.9024 100.666 43.9024ZM100.666 42.7144C101.018 42.7144 101.346 42.6304 101.65 42.4624C101.962 42.2944 102.214 42.0424 102.406 41.7064C102.598 41.3704 102.694 40.9624 102.694 40.4824C102.694 40.0024 102.602 39.5984 102.418 39.2704C102.234 38.9344 101.99 38.6824 101.686 38.5144C101.382 38.3464 101.054 38.2624 100.702 38.2624C100.35 38.2624 100.022 38.3464 99.7184 38.5144C99.4224 38.6824 99.1864 38.9344 99.0104 39.2704C98.8344 39.5984 98.7464 40.0024 98.7464 40.4824C98.7464 41.1944 98.9264 41.7464 99.2864 42.1384C99.6544 42.5224 100.114 42.7144 100.666 42.7144ZM108.787 37.0744C109.307 37.0744 109.771 37.1824 110.179 37.3984C110.595 37.6144 110.919 37.9344 111.151 38.3584C111.383 38.7824 111.499 39.2944 111.499 39.8944V43.7944H110.143V40.0984C110.143 39.5064 109.995 39.0544 109.699 38.7424C109.403 38.4224 108.999 38.2624 108.487 38.2624C107.975 38.2624 107.567 38.4224 107.263 38.7424C106.967 39.0544 106.819 39.5064 106.819 40.0984V43.7944H105.451V37.1824H106.819V37.9384C107.043 37.6664 107.327 37.4544 107.671 37.3024C108.023 37.1504 108.395 37.0744 108.787 37.0744ZM116.112 43.9024C115.488 43.9024 114.924 43.7624 114.42 43.4824C113.916 43.1944 113.52 42.7944 113.232 42.2824C112.944 41.7624 112.8 41.1624 112.8 40.4824C112.8 39.8104 112.948 39.2144 113.244 38.6944C113.54 38.1744 113.944 37.7744 114.456 37.4944C114.968 37.2144 115.54 37.0744 116.172 37.0744C116.804 37.0744 117.376 37.2144 117.888 37.4944C118.4 37.7744 118.804 38.1744 119.1 38.6944C119.396 39.2144 119.544 39.8104 119.544 40.4824C119.544 41.1544 119.392 41.7504 119.088 42.2704C118.784 42.7904 118.368 43.1944 117.84 43.4824C117.32 43.7624 116.744 43.9024 116.112 43.9024ZM116.112 42.7144C116.464 42.7144 116.792 42.6304 117.096 42.4624C117.408 42.2944 117.66 42.0424 117.852 41.7064C118.044 41.3704 118.14 40.9624 118.14 40.4824C118.14 40.0024 118.048 39.5984 117.864 39.2704C117.68 38.9344 117.436 38.6824 117.132 38.5144C116.828 38.3464 116.5 38.2624 116.148 38.2624C115.796 38.2624 115.468 38.3464 115.164 38.5144C114.868 38.6824 114.632 38.9344 114.456 39.2704C114.28 39.5984 114.192 40.0024 114.192 40.4824C114.192 41.1944 114.372 41.7464 114.732 42.1384C115.1 42.5224 115.56 42.7144 116.112 42.7144ZM128.9 37.0744C129.42 37.0744 129.884 37.1824 130.292 37.3984C130.708 37.6144 131.032 37.9344 131.264 38.3584C131.504 38.7824 131.624 39.2944 131.624 39.8944V43.7944H130.268V40.0984C130.268 39.5064 130.12 39.0544 129.824 38.7424C129.528 38.4224 129.124 38.2624 128.612 38.2624C128.1 38.2624 127.692 38.4224 127.388 38.7424C127.092 39.0544 126.944 39.5064 126.944 40.0984V43.7944H125.588V40.0984C125.588 39.5064 125.44 39.0544 125.144 38.7424C124.848 38.4224 124.444 38.2624 123.932 38.2624C123.42 38.2624 123.012 38.4224 122.708 38.7424C122.412 39.0544 122.264 39.5064 122.264 40.0984V43.7944H120.896V37.1824H122.264V37.9384C122.488 37.6664 122.772 37.4544 123.116 37.3024C123.46 37.1504 123.828 37.0744 124.22 37.0744C124.748 37.0744 125.22 37.1864 125.636 37.4104C126.052 37.6344 126.372 37.9584 126.596 38.3824C126.796 37.9824 127.108 37.6664 127.532 37.4344C127.956 37.1944 128.412 37.0744 128.9 37.0744ZM139.317 37.1824L135.261 46.9024H133.845L135.189 43.6864L132.585 37.1824H134.109L135.969 42.2224L137.901 37.1824H139.317Z" fill="#CCCCCC"/>
</svg>
